<svg width="68" height="94" viewBox="0 0 68 94" fill="none" xmlns="http://www.w3.org/2000/svg">
<g id="&#240;&#159;&#166;&#134; icon &#34;Code Branch&#34;">
<path id="Vector" d="M68 26.25C68 18.1927 61.6604 11.6667 53.8333 11.6667C46.0062 11.6667 39.6667 18.1927 39.6667 26.25C39.6667 32.8854 43.9698 38.4818 49.849 40.25C49.7427 43.1849 49.1052 45.4453 47.901 46.9766C45.174 50.4766 39.1708 51.0599 32.8135 51.6615C27.8198 52.1354 22.649 52.6458 18.4167 54.7422V28.4922C24.1719 26.6328 28.3333 21.1094 28.3333 14.5833C28.3333 6.52604 21.9937 0 14.1667 0C6.33958 0 0 6.52604 0 14.5833C0 21.1094 4.16146 26.6328 9.91667 28.4922V64.8229C4.16146 66.7005 0 72.224 0 78.75C0 86.8073 6.33958 93.3333 14.1667 93.3333C21.9937 93.3333 28.3333 86.8073 28.3333 78.75C28.3333 72.5521 24.5792 67.2474 19.2667 65.151C19.8156 64.2031 20.6479 63.3646 21.9052 62.7083C24.774 61.2135 29.0594 60.8125 33.6104 60.375C41.0833 59.6641 49.5479 58.8437 54.5417 52.4635C57.0208 49.2917 58.2781 45.2083 58.3667 40.0859C63.9625 38.1172 68 32.6667 68 26.25ZM14.1667 11.6667C15.725 11.6667 17 12.9792 17 14.5833C17 16.1875 15.725 17.5 14.1667 17.5C12.6083 17.5 11.3333 16.1875 11.3333 14.5833C11.3333 12.9792 12.6083 11.6667 14.1667 11.6667ZM14.1667 81.6667C12.6083 81.6667 11.3333 80.3542 11.3333 78.75C11.3333 77.1458 12.6083 75.8333 14.1667 75.8333C15.725 75.8333 17 77.1458 17 78.75C17 80.3542 15.725 81.6667 14.1667 81.6667ZM53.8333 23.3333C55.3917 23.3333 56.6667 24.6458 56.6667 26.25C56.6667 27.8542 55.3917 29.1667 53.8333 29.1667C52.275 29.1667 51 27.8542 51 26.25C51 24.6458 52.275 23.3333 53.8333 23.3333Z" fill="#F8F9FB"/>
</g>
</svg>
